<svg width="260" height="63" viewBox="0 0 260 63" fill="none" xmlns="http://www.w3.org/2000/svg">
<g clip-path="url(#clip0)">
<path d="M7.26305 30.1319C7.07807 30.2858 6.94188 30.3875 6.81893 30.5032C3.95969 33.1937 2.585 36.5112 2.6549 40.4277C2.69404 42.6205 3.21682 44.6816 4.45748 46.5182C5.22122 47.6489 6.19446 48.5371 7.57215 48.8345C7.93735 48.9133 8.08612 49.0851 8.11492 49.4068C8.21133 50.4839 8.28687 51.5628 8.38943 52.6393C8.43946 53.1643 8.25967 53.5568 7.90555 53.9506C5.66708 56.4401 3.31403 58.7966 0.484944 60.6288C0.104009 60.8755 -0.119782 61.6312 0.0671852 61.93C0.246845 62.217 0.864999 62.2191 1.32196 61.9315C1.39449 61.8827 1.46424 61.8298 1.53088 61.7733C1.89956 61.4789 2.27123 61.1881 2.63544 60.8883C7.06657 57.2408 10.7959 52.9436 14.1111 48.2887C15.0134 47.024 16.2029 45.9914 17.5818 45.2756C17.7713 45.1865 17.9553 45.0859 18.1327 44.9744C18.4493 44.7508 18.712 44.8169 19.033 45.0055C20.9024 46.1238 23.0484 46.6944 25.2263 46.6525C27.4498 46.6161 29.5919 46.1216 31.5318 45.0994C35.0696 43.235 38.5226 41.2097 42.0425 39.2338C41.9723 39.1879 41.8991 39.1466 41.8235 39.1102C39.4834 38.2193 37.09 37.5231 34.5971 37.2291C31.7097 36.8885 28.8786 37.0913 26.1557 38.207C23.2051 39.4161 20.9295 41.4568 19.0342 43.9695C18.92 44.121 18.8105 44.3204 18.6524 44.3867C17.904 44.7006 17.1395 44.976 16.3126 45.2911C16.4055 45.1407 16.4549 45.0539 16.5107 44.9714C18.644 41.8174 20.8798 38.7266 22.8779 35.4892C24.3336 33.1306 26.3034 31.545 28.7852 30.48C28.8504 30.4548 28.9131 30.4238 28.9728 30.3873C29.5893 29.9782 30.2047 29.8815 30.8339 30.3676C30.9388 30.4306 31.0524 30.4779 31.1711 30.5077C34.9703 31.8946 38.8772 32.3354 42.8739 31.7181C45.7433 31.2749 48.2996 30.1448 50.2668 27.9173C51.2243 26.8362 51.9488 25.5693 52.3949 24.1958C52.2203 24.1958 52.0994 24.1938 51.9785 24.196C49.6721 24.2379 47.3655 24.2721 45.0593 24.3248C42.6484 24.3799 40.2381 24.4554 37.8626 24.9347C35.335 25.4446 32.9359 26.3088 31.1714 28.2518C30.1924 29.3299 29.1198 30.0596 27.7572 30.4661C27.2025 30.6316 26.6816 30.9108 26.0069 31.197C27.7159 28.9148 29.4305 26.8464 31.3163 24.9227C34.0262 22.1584 37.031 19.7874 40.5222 18.0754C40.764 17.9498 41.0397 17.9051 41.3089 17.9478C43.2291 18.4191 45.2064 18.6158 47.1819 18.5321C50.5379 18.3821 53.5946 17.391 56.2142 15.2278C57.7526 13.9574 58.968 12.4219 60 10.517C58.3853 10.261 56.869 9.91196 55.3352 9.79692C49.679 9.37269 44.9914 11.2807 41.5872 15.9005C40.8383 16.9168 40.0161 17.641 38.8904 18.1985C35.6755 19.7908 33.0041 22.1267 30.5028 24.6641C30.3768 24.7919 30.3125 24.9805 30.2195 25.1408C30.3984 23.7307 30.652 22.4524 30.93 21.1795C30.9863 21.0177 31.0946 20.8791 31.238 20.7853C34.9328 18.1035 36.632 14.3993 36.6343 9.9196C36.6357 7.26793 36.4104 4.61601 36.2809 1.96451C36.2491 1.31394 36.1931 0.664547 36.1472 -6.10352e-05C34.4143 0.48673 32.895 1.39274 31.8023 2.56945C29.9102 4.60696 29.189 7.1084 29.0066 9.79772C28.756 13.492 29.4239 17.0662 30.512 20.5795C30.5985 20.8394 30.6084 21.1186 30.5406 21.3839C30.0419 22.9444 29.5131 24.4954 28.9784 26.0441C28.8975 26.2742 28.7729 26.4866 28.6114 26.6694C25.3267 30.355 22.4263 34.3374 19.5666 38.3515C19.4405 38.5284 19.311 38.7029 19.1225 38.9617C19.0736 38.7762 19.0465 38.698 19.0328 38.6175C18.8016 37.2582 18.586 35.8959 18.334 34.5405C18.2561 34.1217 18.3812 33.8772 18.7089 33.6169C20.7874 31.966 21.8496 29.7916 21.9781 27.1467C22.0724 25.206 21.7387 23.3186 21.2911 21.4448C20.6996 18.968 20.0983 16.4936 19.5099 14.0161C19.4373 13.7104 19.4183 13.3921 19.3584 12.9652C18.7358 13.5077 18.1898 13.9426 17.6901 14.4254C14.4789 17.5281 13.1457 21.2573 13.9772 25.6937C14.5253 28.6178 15.8295 31.2006 17.5536 33.5944C17.7022 33.7801 17.8037 33.9989 17.8495 34.2323C18.0588 35.9981 18.247 37.7664 18.4255 39.5357C18.4522 39.7323 18.4122 39.9322 18.3119 40.1033C15.3641 44.1146 12.4081 48.12 9.44395 52.1193C9.35045 52.2457 9.23902 52.3589 9.15928 52.4513C8.86934 51.2281 8.59002 50.0496 8.30006 48.8263C8.41028 48.7561 8.58706 48.6463 8.76101 48.5322C10.8694 47.1494 11.8339 45.2214 11.3863 42.7145C11.174 41.5841 10.866 40.4738 10.4656 39.3955C9.36 36.3426 7.66678 33.4978 7.26305 30.1319Z" fill="#FBFBFB"/>
<path d="M7.26304 30.132C7.66677 33.4979 9.35999 36.3426 10.4656 39.3956C10.866 40.4738 11.174 41.5842 11.3863 42.7146C11.8339 45.2214 10.8694 47.1495 8.761 48.5323C8.58706 48.6464 8.41027 48.7561 8.30005 48.8263C8.59001 50.0497 8.86934 51.2281 9.15927 52.4513C9.23902 52.359 9.35044 52.2458 9.44394 52.1193C12.4038 48.1169 15.3598 44.1116 18.3119 40.1034C18.4122 39.9322 18.4522 39.7323 18.4255 39.5357C18.247 37.7665 18.0588 35.9981 17.8495 34.2323C17.8037 33.999 17.7022 33.7801 17.5536 33.5945C15.8294 31.2007 14.5253 28.6178 13.9772 25.6937C13.1457 21.2573 14.4789 17.5281 17.6901 14.4255C18.1898 13.9427 18.7358 13.5078 19.3584 12.9653C19.4183 13.3921 19.4373 13.7105 19.5099 14.0161C20.0983 16.4937 20.6996 18.9681 21.2911 21.4448C21.7386 23.3186 22.0723 25.2061 21.9781 27.1468C21.8496 29.7916 20.7874 31.9661 18.7089 33.617C18.3812 33.8773 18.2561 34.1217 18.334 34.5405C18.586 35.896 18.8016 37.2582 19.0328 38.6176C19.0465 38.6981 19.0736 38.7762 19.1225 38.9617C19.311 38.703 19.4405 38.5285 19.5666 38.3515C22.4263 34.3374 25.3267 30.355 28.6114 26.6695C28.7729 26.4866 28.8975 26.2743 28.9784 26.0441C29.5131 24.4955 30.0419 22.9445 30.5406 21.3839C30.6084 21.1186 30.5985 20.8394 30.512 20.5796C29.4239 17.0662 28.756 13.492 29.0066 9.79779C29.189 7.10846 29.9102 4.60702 31.8023 2.56952C32.895 1.3928 34.4143 0.486792 36.1472 0C36.1931 0.664609 36.2491 1.314 36.2809 1.96457C36.4104 4.61607 36.6357 7.26799 36.6343 9.91966C36.632 14.3994 34.9328 18.1036 31.238 20.7854C31.0946 20.8791 30.9863 21.0177 30.93 21.1795C30.652 22.4525 30.3984 23.7308 30.2195 25.1408C30.3125 24.9806 30.3768 24.792 30.5028 24.6642C33.0041 22.1268 35.6755 19.7909 38.8904 18.1986C40.0161 17.641 40.8383 16.9169 41.5872 15.9006C44.9914 11.2807 49.679 9.37275 55.3352 9.79698C56.869 9.91202 58.3853 10.2611 60 10.5171C58.968 12.4219 57.7526 13.9575 56.2142 15.2278C53.5946 17.391 50.5379 18.3822 47.1819 18.5322C45.2064 18.6159 43.2291 18.4192 41.3088 17.9479C41.0397 17.9052 40.764 17.9499 40.5222 18.0755C37.031 19.7875 34.0262 22.1585 31.3163 24.9228C29.4304 26.8465 27.7159 28.9148 26.0069 31.197C26.6816 30.9109 27.2025 30.6317 27.7572 30.4662C29.1198 30.0596 30.1924 29.33 31.1714 28.2519C32.9359 26.3088 35.335 25.4446 37.8626 24.9347C40.2381 24.4555 42.6484 24.38 45.0593 24.3249C47.3655 24.2722 49.6721 24.238 51.9785 24.1961C52.0994 24.1939 52.2203 24.1958 52.3949 24.1958C51.9488 25.5694 51.2243 26.8363 50.2668 27.9174C48.2996 30.1448 45.7433 31.275 42.8739 31.7182C38.8772 32.3355 34.9703 31.8947 31.1711 30.5077C31.0524 30.4779 30.9388 30.4307 30.8339 30.3676C30.2047 29.8816 29.5893 29.9783 28.9728 30.3874C28.9131 30.4238 28.8503 30.4548 28.7852 30.4801C26.3034 31.5451 24.3336 33.1307 22.8779 35.4893C20.8798 38.7267 18.644 41.8175 16.5107 44.9715C16.4549 45.0539 16.4055 45.1407 16.3126 45.2912C17.1395 44.9761 17.904 44.7007 18.6524 44.3868C18.8105 44.3204 18.92 44.121 19.0342 43.9696C20.9295 41.4568 23.2051 39.4162 26.1557 38.2071C28.8786 37.0913 31.7097 36.8886 34.5971 37.2291C37.09 37.5232 39.4834 38.2194 41.8235 39.1103C41.8991 39.1466 41.9723 39.1879 42.0425 39.2338C38.5226 41.2097 35.0696 43.2351 31.5318 45.0994C29.5919 46.1217 27.4498 46.6162 25.2263 46.6526C23.0483 46.6945 20.9024 46.1238 19.033 45.0056C18.712 44.8169 18.4492 44.7509 18.1327 44.9744C17.9553 45.0859 17.7713 45.1865 17.5818 45.2757C16.2029 45.9914 15.0134 47.0241 14.1111 48.2888C10.7958 52.9437 7.06656 57.2408 2.63542 60.8884C2.27121 61.1882 1.89954 61.479 1.53086 61.7733C1.46422 61.8299 1.39448 61.8827 1.32195 61.9315C0.864983 62.2192 0.24683 62.2171 0.06717 61.93C-0.119798 61.6313 0.103994 60.8756 0.484928 60.6289C3.31401 58.7966 5.66706 56.4401 7.90553 53.9507C8.25965 53.5568 8.43944 53.1643 8.38942 52.6393C8.28686 51.5629 8.21131 50.4839 8.1149 49.4069C8.0861 49.0851 7.93734 48.9134 7.57213 48.8346C6.19444 48.5372 5.22121 47.6489 4.45747 46.5183C3.2168 44.6817 2.69402 42.6206 2.65488 40.4277C2.58498 36.5112 3.95967 33.1937 6.81892 30.5032C6.94187 30.3875 7.07805 30.2859 7.26304 30.132Z" fill="#00C853"/>
</g>
<path d="M82.3828 14.9414C82.5 14.9414 82.6523 14.9531 82.8398 14.9766C83.0273 15 83.1914 15.0586 83.332 15.1523C83.4961 15.2227 83.6133 15.3281 83.6836 15.4688C83.7539 15.6094 83.7422 15.7852 83.6484 15.9961C84.0703 15.7852 84.4453 15.6211 84.7734 15.5039C85.1016 15.3633 85.4062 15.2578 85.6875 15.1875C85.9922 15.0938 86.2852 15.0352 86.5664 15.0117C86.8711 14.9883 87.2227 14.9766 87.6211 14.9766C88.5352 14.9766 89.3203 15.2578 89.9766 15.8203C90.6328 16.3594 91.1836 17.0859 91.6289 18C92.0977 18.9141 92.4609 19.9688 92.7188 21.1641C93 22.3594 93.1875 23.6133 93.2812 24.9258C93.375 26.2383 93.3984 27.5625 93.3516 28.8984C93.3281 30.2344 93.2344 31.5 93.0703 32.6953C92.9297 33.8906 92.7305 34.9805 92.4727 35.9648C92.2148 36.9258 91.9336 37.6992 91.6289 38.2852C91.6289 38.3086 91.6406 38.3555 91.6641 38.4258C91.7109 38.4961 91.8047 38.6836 91.9453 38.9883C92.1094 39.293 92.3555 39.7617 92.6836 40.3945C93.0352 41.0039 93.5273 41.8711 94.1602 42.9961C94.2773 43.2539 94.3125 43.4883 94.2656 43.6992C94.2188 43.9102 94.1133 44.0977 93.9492 44.2617C93.7852 44.4023 93.5859 44.4961 93.3516 44.543C93.1172 44.5898 92.8828 44.5781 92.6484 44.5078C92.3203 43.9453 91.957 43.3711 91.5586 42.7852C91.1602 42.1758 90.6914 41.5781 90.1523 40.9922C89.8008 41.4375 89.4141 41.9062 88.9922 42.3984C88.5703 42.8672 88.1016 43.3008 87.5859 43.6992C87.0938 44.0742 86.5664 44.3906 86.0039 44.6484C85.4414 44.9062 84.8438 45.0352 84.2109 45.0352C83.1797 45.0586 82.207 44.7539 81.293 44.1211C80.4023 43.4883 79.5938 42.6211 78.8672 41.5195C78.1641 40.418 77.5664 39.1289 77.0742 37.6523C76.582 36.1758 76.2305 34.6172 76.0195 32.9766C75.832 31.3359 75.7969 29.6602 75.9141 27.9492C76.0312 26.2148 76.3359 24.5508 76.8281 22.957C77.3438 21.3633 78.0469 19.875 78.9375 18.4922C79.8516 17.1094 81 15.9258 82.3828 14.9414ZM85.4414 30.8672C85.3477 30.9609 85.2891 30.8906 85.2656 30.6562C85.2422 30.3984 85.2773 30.1406 85.3711 29.8828C85.4648 29.625 85.6289 29.4492 85.8633 29.3555C86.1211 29.2383 86.4844 29.3672 86.9531 29.7422C86.9531 29.7422 87.0234 29.9062 87.1641 30.2344C87.3281 30.5391 87.5273 30.9258 87.7617 31.3945C87.9961 31.8398 88.2539 32.332 88.5352 32.8711C88.8164 33.4102 89.0742 33.9141 89.3086 34.3828C89.543 34.8516 89.7422 35.2383 89.9062 35.543C90.0703 35.8477 90.1523 36 90.1523 36C90.5039 35.0625 90.7852 33.9375 90.9961 32.625C91.2305 31.3125 91.3711 29.9531 91.418 28.5469C91.4883 27.1406 91.4531 25.7578 91.3125 24.3984C91.1953 23.0156 90.9609 21.7734 90.6094 20.6719C90.2812 19.5703 89.8359 18.6797 89.2734 18C88.7109 17.2969 88.0078 16.9336 87.1641 16.9102C85.5234 16.7461 84.1172 16.957 82.9453 17.543C81.7734 18.1289 80.8125 18.9609 80.0625 20.0391C79.3125 21.1172 78.75 22.3828 78.375 23.8359C78 25.2891 77.7891 26.8125 77.7422 28.4062C77.7188 29.9766 77.8359 31.5469 78.0938 33.1172C78.3516 34.6641 78.7266 36.0938 79.2188 37.4062C79.7344 38.6953 80.3438 39.8086 81.0469 40.7461C81.7734 41.6602 82.5586 42.2578 83.4023 42.5391C84.2695 42.8203 85.1953 42.7266 86.1797 42.2578C87.1641 41.7891 88.1836 40.8047 89.2383 39.3047L85.4414 30.8672ZM105.832 24.2578C105.855 24.1172 105.926 23.9648 106.043 23.8008C106.184 23.6133 106.348 23.4844 106.535 23.4141C106.746 23.3438 106.969 23.3789 107.203 23.5195C107.461 23.6367 107.719 23.918 107.977 24.3633C107.883 26.168 107.766 27.9727 107.625 29.7773C107.508 31.5586 107.449 33.3281 107.449 35.0859C107.473 36.8203 107.59 38.543 107.801 40.2539C108.035 41.9648 108.445 43.6289 109.031 45.2461C109.055 45.4102 108.996 45.5508 108.855 45.668C108.715 45.8086 108.527 45.9023 108.293 45.9492C108.059 46.0195 107.824 46.043 107.59 46.0195C107.355 45.9961 107.168 45.8906 107.027 45.7031L105.797 39.832C105.703 40.1367 105.434 40.582 104.988 41.168C104.566 41.7539 104.062 42.3516 103.477 42.9609C102.914 43.5469 102.328 44.0742 101.719 44.543C101.109 44.9883 100.582 45.2227 100.137 45.2461C99.0352 45.3164 98.168 44.9297 97.5352 44.0859C96.9023 43.2422 96.4336 42.1406 96.1289 40.7812C95.8477 39.3984 95.6836 37.8633 95.6367 36.1758C95.5898 34.4883 95.5898 32.8477 95.6367 31.2539C95.6836 29.6602 95.7422 28.2188 95.8125 26.9297C95.8828 25.6406 95.8828 24.6914 95.8125 24.082C95.8828 23.8945 96 23.7539 96.1641 23.6602C96.3516 23.5664 96.5508 23.5195 96.7617 23.5195C96.9727 23.5195 97.1719 23.5664 97.3594 23.6602C97.5703 23.7539 97.7227 23.8945 97.8164 24.082C97.8633 24.8789 97.875 25.875 97.8516 27.0703C97.8281 28.2656 97.8047 29.543 97.7812 30.9023C97.7578 32.2383 97.7578 33.5859 97.7812 34.9453C97.8281 36.3047 97.9219 37.5469 98.0625 38.6719C98.2031 39.7734 98.4141 40.6992 98.6953 41.4492C99 42.1758 99.4219 42.5859 99.9609 42.6797C100.359 42.6797 100.758 42.5508 101.156 42.293C101.555 42.0352 101.953 41.707 102.352 41.3086C102.75 40.8867 103.125 40.4297 103.477 39.9375C103.828 39.4219 104.133 38.9297 104.391 38.4609C104.648 37.9688 104.859 37.5234 105.023 37.125C105.188 36.7266 105.281 36.4219 105.305 36.2109C105.328 35.9297 105.363 35.4844 105.41 34.875C105.457 34.2422 105.492 33.5391 105.516 32.7656C105.562 31.9688 105.598 31.125 105.621 30.2344C105.668 29.3438 105.703 28.5117 105.727 27.7383C105.773 26.9414 105.797 26.2383 105.797 25.6289C105.82 24.9961 105.832 24.5391 105.832 24.2578ZM110.473 23.4141C110.613 23.3438 110.777 23.2852 110.965 23.2383C111.152 23.1914 111.328 23.168 111.492 23.168C111.68 23.168 111.855 23.2031 112.02 23.2734C112.184 23.3438 112.312 23.4727 112.406 23.6602C112.406 25.1836 112.418 26.8359 112.441 28.6172C112.488 30.375 112.535 32.168 112.582 33.9961C112.652 35.8008 112.711 37.582 112.758 39.3398C112.805 41.0977 112.852 42.7266 112.898 44.2266C112.922 44.5781 112.828 44.8477 112.617 45.0352C112.406 45.2227 112.172 45.3164 111.914 45.3164C111.68 45.3164 111.457 45.2227 111.246 45.0352C111.035 44.8711 110.93 44.6016 110.93 44.2266L110.473 23.4141ZM110.051 16.2422C110.051 15.9375 110.156 15.7383 110.367 15.6445C110.578 15.5273 110.812 15.4688 111.07 15.4688C111.586 15.4688 111.902 15.6445 112.02 15.9961C112.16 16.3242 112.23 16.7109 112.23 17.1562C112.09 17.4375 111.902 17.6367 111.668 17.7539C111.434 17.8711 111.188 17.8945 110.93 17.8242C110.695 17.7539 110.484 17.5898 110.297 17.332C110.133 17.0742 110.051 16.7109 110.051 16.2422ZM133.852 35.6133C133.688 35.7539 133.395 35.8125 132.973 35.7891C132.574 35.7422 132.199 35.6484 131.848 35.5078C131.52 35.3672 131.297 35.1797 131.18 34.9453C131.062 34.6875 131.203 34.3945 131.602 34.0664C131.766 33.9258 131.941 33.832 132.129 33.7852C132.34 33.7148 132.539 33.6562 132.727 33.6094C132.938 33.5391 133.102 33.4453 133.219 33.3281C133.359 33.2109 133.441 33.0234 133.465 32.7656C133.488 31.7109 133.57 30.6328 133.711 29.5312C133.875 28.4297 134.168 27.4453 134.59 26.5781C135.012 25.7109 135.609 25.0195 136.383 24.5039C137.18 23.9883 138.223 23.7891 139.512 23.9062C139.98 23.9062 140.508 24.0234 141.094 24.2578C141.68 24.4688 142.242 24.7617 142.781 25.1367C143.32 25.4883 143.789 25.9219 144.188 26.4375C144.586 26.9297 144.832 27.4688 144.926 28.0547C145.09 28.2891 144.996 28.582 144.645 28.9336C144.293 29.2852 143.801 29.6836 143.168 30.1289C142.535 30.5508 141.82 30.9844 141.023 31.4297C140.227 31.875 139.453 32.2969 138.703 32.6953C137.977 33.0938 137.332 33.4453 136.77 33.75C136.207 34.0547 135.844 34.2656 135.68 34.3828C135.82 35.2969 135.973 36.2578 136.137 37.2656C136.301 38.2734 136.535 39.1992 136.84 40.043C137.145 40.8867 137.52 41.5898 137.965 42.1523C138.434 42.6914 139.02 42.9609 139.723 42.9609C140.754 43.0312 141.633 42.8789 142.359 42.5039C143.109 42.1289 143.73 41.6367 144.223 41.0273C144.715 40.418 145.102 39.75 145.383 39.0234C145.688 38.2969 145.91 37.6055 146.051 36.9492C146.215 36.293 146.32 35.7422 146.367 35.2969C146.438 34.8281 146.496 34.5703 146.543 34.5234C146.801 34.3828 147.094 34.3828 147.422 34.5234C147.75 34.6406 147.938 34.9805 147.984 35.543C148.008 36.457 147.809 37.5 147.387 38.6719C146.965 39.8438 146.379 40.9219 145.629 41.9062C144.902 42.8906 144.023 43.6875 142.992 44.2969C141.984 44.8828 140.906 45.082 139.758 44.8945C138.562 44.8711 137.613 44.5312 136.91 43.875C136.207 43.1953 135.645 42.3867 135.223 41.4492C134.824 40.4883 134.531 39.4805 134.344 38.4258C134.156 37.3711 133.992 36.4336 133.852 35.6133ZM143.062 28.0547C142.312 27.0234 141.551 26.3672 140.777 26.0859C140.004 25.8047 139.207 25.7227 138.387 25.8398C137.895 25.9102 137.461 26.1445 137.086 26.543C136.711 26.918 136.406 27.4102 136.172 28.0195C135.938 28.6055 135.773 29.2734 135.68 30.0234C135.586 30.75 135.574 31.5 135.645 32.2734L143.062 28.0547ZM149.391 42.4688C149.836 42.8203 150.375 43.0078 151.008 43.0312C151.664 43.0547 152.344 42.9727 153.047 42.7852C153.773 42.5742 154.5 42.2812 155.227 41.9062C155.977 41.5078 156.656 41.0742 157.266 40.6055C157.898 40.1367 158.438 39.6445 158.883 39.1289C159.352 38.5898 159.668 38.0859 159.832 37.6172C159.996 37.125 159.984 36.6797 159.797 36.2812C159.609 35.8828 159.188 35.5664 158.531 35.332C157.336 35.6133 156.141 35.8359 154.945 36C153.75 36.1641 152.672 36.1641 151.711 36C150.773 35.8359 150.012 35.4492 149.426 34.8398C148.84 34.2305 148.57 33.293 148.617 32.0273C148.688 30.8086 149.016 29.6719 149.602 28.6172C150.211 27.5391 150.973 26.625 151.887 25.875C152.824 25.125 153.855 24.5508 154.98 24.1523C156.129 23.7539 157.289 23.5898 158.461 23.6602C158.695 23.6836 158.906 23.707 159.094 23.7305C159.305 23.7305 159.492 23.7656 159.656 23.8359C159.82 23.9062 159.938 24.0117 160.008 24.1523C160.102 24.293 160.137 24.5039 160.113 24.7852C160.09 25.1367 159.961 25.418 159.727 25.6289C159.492 25.8398 159.176 25.9219 158.777 25.875C157.395 25.5938 156.152 25.6523 155.051 26.0508C153.949 26.4492 153.035 27.0117 152.309 27.7383C151.582 28.4414 151.066 29.2383 150.762 30.1289C150.457 31.0195 150.41 31.8281 150.621 32.5547C151.066 33.3984 151.641 33.9375 152.344 34.1719C153.07 34.3828 153.832 34.4531 154.629 34.3828C155.449 34.3125 156.281 34.1953 157.125 34.0312C157.969 33.8438 158.73 33.7852 159.41 33.8555C160.09 33.9023 160.652 34.1602 161.098 34.6289C161.543 35.0742 161.789 35.9062 161.836 37.125C161.812 37.8984 161.555 38.6484 161.062 39.375C160.57 40.0781 159.938 40.7461 159.164 41.3789C158.414 41.9883 157.57 42.5508 156.633 43.0664C155.695 43.5586 154.758 43.9688 153.82 44.2969C152.906 44.625 152.039 44.8477 151.219 44.9648C150.422 45.082 149.777 45.0703 149.285 44.9297C148.746 44.4609 148.465 44.0039 148.441 43.5586C148.418 43.0898 148.734 42.7266 149.391 42.4688ZM164.859 28.3008L161.625 29.3906C161.367 29.3203 161.156 29.1914 160.992 29.0039C160.805 28.8164 160.676 28.6172 160.605 28.4062C160.535 28.1953 160.523 27.9961 160.57 27.8086C160.594 27.6211 160.688 27.4805 160.852 27.3867L164.859 25.875L164.789 15.9258C164.859 15.6211 165.012 15.3984 165.246 15.2578C165.48 15.1172 165.715 15.0586 165.949 15.082C166.207 15.082 166.441 15.1641 166.652 15.3281C166.863 15.4688 167.004 15.6563 167.074 15.8906C167.027 16.6172 166.992 17.3906 166.969 18.2109C166.945 19.0078 166.922 19.8164 166.898 20.6367C166.898 21.4336 166.91 22.2188 166.934 22.9922C166.957 23.7422 167.004 24.4336 167.074 25.0664L172.523 22.8516C172.852 22.7578 173.109 22.793 173.297 22.957C173.484 23.0977 173.602 23.2969 173.648 23.5547C173.719 23.7891 173.707 24.0234 173.613 24.2578C173.52 24.4922 173.355 24.6562 173.121 24.75L167.074 27.4922C167.074 27.7266 167.086 28.2891 167.109 29.1797C167.133 30.0469 167.156 31.0781 167.18 32.2734C167.203 33.4688 167.227 34.7461 167.25 36.1055C167.273 37.4648 167.285 38.7422 167.285 39.9375C167.309 41.1328 167.32 42.1758 167.32 43.0664C167.344 43.9336 167.355 44.4844 167.355 44.7188C167.309 45.4922 167.086 45.8789 166.688 45.8789C166.289 45.8789 165.855 45.6914 165.387 45.3164L164.859 28.3008ZM190.207 44.9297C190.066 42.8672 189.961 40.875 189.891 38.9531C189.844 37.0312 189.809 34.957 189.785 32.7305C189.762 30.5039 189.738 28.0078 189.715 25.2422C189.691 22.4766 189.645 19.2305 189.574 15.5039C189.879 15.5039 190.16 15.4922 190.418 15.4688C190.699 15.4219 190.934 15.4102 191.121 15.4336C191.332 15.457 191.496 15.5391 191.613 15.6797C191.73 15.7969 191.789 16.0312 191.789 16.3828C191.789 17.3438 191.789 18.2812 191.789 19.1953C191.812 20.0859 191.824 21.0703 191.824 22.1484C191.824 23.2266 191.824 24.457 191.824 25.8398C191.848 27.2227 191.859 28.8633 191.859 30.7617C192.773 29.5664 193.605 28.6172 194.355 27.9141C195.129 27.1875 195.855 26.6484 196.535 26.2969C197.215 25.9219 197.871 25.6992 198.504 25.6289C199.16 25.5352 199.816 25.5234 200.473 25.5938C201.223 25.5938 201.844 25.7578 202.336 26.0859C202.828 26.3906 203.215 26.8125 203.496 27.3516C203.801 27.8672 204.012 28.4648 204.129 29.1445C204.246 29.8242 204.305 30.5273 204.305 31.2539C204.281 31.7695 204.246 32.332 204.199 32.9414C204.152 33.5273 204.012 34.1719 203.777 34.875C203.566 35.5547 203.227 36.2695 202.758 37.0195C202.289 37.7695 201.621 38.5664 200.754 39.4102C199.91 40.2305 198.832 41.0859 197.52 41.9766C196.23 42.8672 194.648 43.7812 192.773 44.7188C192.164 44.8828 191.684 44.9883 191.332 45.0352C191.004 45.082 190.746 45.0938 190.559 45.0703C190.395 45.0703 190.289 45.0469 190.242 45C190.219 44.9766 190.207 44.9531 190.207 44.9297ZM191.965 42.6797C192.082 42.5859 192.41 42.4102 192.949 42.1523C193.488 41.8945 194.133 41.5547 194.883 41.1328C195.633 40.7109 196.43 40.1953 197.273 39.5859C198.117 38.9766 198.902 38.2734 199.629 37.4766C200.379 36.6562 201.012 35.7305 201.527 34.6992C202.043 33.668 202.348 32.5195 202.441 31.2539C202.441 30.9023 202.383 30.5156 202.266 30.0938C202.172 29.6719 202.008 29.2852 201.773 28.9336C201.562 28.5586 201.281 28.2539 200.93 28.0195C200.602 27.7617 200.203 27.6328 199.734 27.6328C198.773 27.6328 197.895 27.8789 197.098 28.3711C196.324 28.8398 195.621 29.4375 194.988 30.1641C194.355 30.8906 193.793 31.6875 193.301 32.5547C192.832 33.3984 192.434 34.1953 192.105 34.9453L191.965 42.6797ZM206.414 23.4141C206.555 23.3438 206.719 23.2852 206.906 23.2383C207.094 23.1914 207.27 23.168 207.434 23.168C207.621 23.168 207.797 23.2031 207.961 23.2734C208.125 23.3438 208.254 23.4727 208.348 23.6602C208.348 25.1836 208.359 26.8359 208.383 28.6172C208.43 30.375 208.477 32.168 208.523 33.9961C208.594 35.8008 208.652 37.582 208.699 39.3398C208.746 41.0977 208.793 42.7266 208.84 44.2266C208.863 44.5781 208.77 44.8477 208.559 45.0352C208.348 45.2227 208.113 45.3164 207.855 45.3164C207.621 45.3164 207.398 45.2227 207.188 45.0352C206.977 44.8711 206.871 44.6016 206.871 44.2266L206.414 23.4141ZM205.992 16.2422C205.992 15.9375 206.098 15.7383 206.309 15.6445C206.52 15.5273 206.754 15.4688 207.012 15.4688C207.527 15.4688 207.844 15.6445 207.961 15.9961C208.102 16.3242 208.172 16.7109 208.172 17.1562C208.031 17.4375 207.844 17.6367 207.609 17.7539C207.375 17.8711 207.129 17.8945 206.871 17.8242C206.637 17.7539 206.426 17.5898 206.238 17.332C206.074 17.0742 205.992 16.7109 205.992 16.2422ZM214.781 44.8594C213.844 44.7422 213.07 44.3672 212.461 43.7344C211.875 43.1016 211.406 42.3281 211.055 41.4141C210.703 40.5 210.469 39.5039 210.352 38.4258C210.258 37.3242 210.234 36.2461 210.281 35.1914C210.352 33.5742 210.645 32.0273 211.16 30.5508C211.699 29.0742 212.355 27.7969 213.129 26.7188C213.926 25.6172 214.793 24.7734 215.73 24.1875C216.691 23.5781 217.629 23.3438 218.543 23.4844C219.504 23.625 220.277 24.082 220.863 24.8555C221.473 25.6289 221.941 26.5781 222.27 27.7031C222.598 28.8281 222.797 30.0586 222.867 31.3945C222.938 32.707 222.926 33.9727 222.832 35.1914C222.715 36.5742 222.41 37.8633 221.918 39.0586C221.426 40.2539 220.805 41.2852 220.055 42.1523C219.328 43.0195 218.496 43.6992 217.559 44.1914C216.645 44.6602 215.719 44.8828 214.781 44.8594ZM218.191 25.4883C217.418 25.3945 216.691 25.6406 216.012 26.2266C215.355 26.7891 214.758 27.5508 214.219 28.5117C213.703 29.4492 213.27 30.5273 212.918 31.7461C212.566 32.9414 212.332 34.125 212.215 35.2969C212.121 36.1406 212.086 37.0078 212.109 37.8984C212.133 38.7891 212.238 39.5977 212.426 40.3242C212.637 41.0508 212.953 41.6484 213.375 42.1172C213.82 42.5625 214.406 42.7852 215.133 42.7852C215.719 42.8086 216.328 42.6094 216.961 42.1875C217.617 41.7656 218.227 41.2031 218.789 40.5C219.352 39.7734 219.844 38.9531 220.266 38.0391C220.711 37.125 221.004 36.1875 221.145 35.2266C221.309 34.2188 221.344 33.1875 221.25 32.1328C221.18 31.0547 221.004 30.0586 220.723 29.1445C220.465 28.2305 220.113 27.4453 219.668 26.7891C219.246 26.1094 218.754 25.6758 218.191 25.4883ZM248.461 43.4883C248.461 43.043 248.543 42.7617 248.707 42.6445C248.871 42.5039 249.105 42.4336 249.41 42.4336C249.855 42.4336 250.23 42.5977 250.535 42.9258C250.84 43.2305 250.992 43.5938 250.992 44.0156C250.992 44.3906 250.852 44.6484 250.57 44.7891C250.312 44.9297 250.008 45 249.656 45C249.516 45 249.375 44.9414 249.234 44.8242C249.094 44.707 248.965 44.5664 248.848 44.4023C248.73 44.2383 248.637 44.0742 248.566 43.9102C248.496 43.7461 248.461 43.6055 248.461 43.4883ZM246.387 27.7031C246.387 26.6484 246.633 25.6992 247.125 24.8555C247.641 23.9883 248.262 23.168 248.988 22.3945C249.738 21.6211 250.547 20.8711 251.414 20.1445C252.305 19.418 253.113 18.668 253.84 17.8945C254.59 17.0977 255.211 16.2656 255.703 15.3984C256.219 14.5313 256.477 13.5703 256.477 12.5156C256.477 11.9062 256.312 11.4609 255.984 11.1797C255.68 10.875 255.293 10.6758 254.824 10.582C254.355 10.4648 253.84 10.418 253.277 10.4414C252.738 10.4414 252.246 10.4414 251.801 10.4414C250.957 10.4414 250.16 10.6055 249.41 10.9336C248.66 11.2617 247.934 11.625 247.23 12.0234C246.551 12.3984 245.871 12.75 245.191 13.0781C244.512 13.3828 243.82 13.5352 243.117 13.5352C242.789 13.5352 242.508 13.5 242.273 13.4297C242.039 13.3359 241.922 13.0195 241.922 12.4805C241.922 12.1758 242.145 11.8711 242.59 11.5664C243.035 11.2383 243.598 10.9336 244.277 10.6523C244.98 10.3477 245.754 10.0664 246.598 9.80859C247.441 9.52734 248.262 9.29297 249.059 9.10547C249.879 8.91797 250.605 8.76562 251.238 8.64844C251.895 8.53125 252.387 8.47266 252.715 8.47266C253.301 8.47266 253.934 8.51953 254.613 8.61328C255.293 8.70703 255.914 8.88281 256.477 9.14062C257.039 9.375 257.508 9.72656 257.883 10.1953C258.258 10.6406 258.445 11.2266 258.445 11.9531C258.445 13.2891 258.105 14.6133 257.426 15.9258C256.77 17.2148 255.961 18.4453 255 19.6172C254.062 20.7656 253.078 21.8438 252.047 22.8516C251.016 23.8359 250.137 24.7148 249.41 25.4883C249.082 25.6523 248.871 25.8984 248.777 26.2266C248.707 26.5547 248.719 26.8945 248.812 27.2461C248.906 27.5977 249.094 27.9375 249.375 28.2656C249.656 28.5938 250.008 28.8398 250.43 29.0039C250.852 29.168 251.332 29.2266 251.871 29.1797C252.434 29.1094 253.043 28.875 253.699 28.4766L254.438 29.9883C253.898 30.4102 253.254 30.6914 252.504 30.832C251.777 30.9727 251.086 31.043 250.43 31.043C249.938 31.043 249.445 30.9727 248.953 30.832C248.484 30.668 248.051 30.4453 247.652 30.1641C247.277 29.8594 246.973 29.5078 246.738 29.1094C246.504 28.6875 246.387 28.2188 246.387 27.7031Z" fill="#00C853"/>
<defs>
<clipPath id="clip0">
<rect width="60" height="62.1463" fill="white"/>
</clipPath>
</defs>
</svg>
